<?xml version="1.0" standalone="no"?>
<!DOCTYPE svg PUBLIC "-//W3C//DTD SVG 20010904//EN"
 "http://www.w3.org/TR/2001/REC-SVG-20010904/DTD/svg10.dtd">
<svg version="1.0" xmlns="http://www.w3.org/2000/svg"
 width="260.000000pt" height="260.000000pt" viewBox="0 0 260.000000 260.000000"
 preserveAspectRatio="xMidYMid meet">
<metadata>
Created by potrace 1.14, written by Peter Selinger 2001-2017
</metadata>
<g transform="translate(0.000000,260.000000) scale(0.100000,-0.100000)"
fill="#000000" stroke="none">
<path d="M1275 2410 c-5 -8 -21 -10 -45 -7 -21 3 -42 1 -47 -3 -8 -8 -70 -19
-125 -23 -16 -1 -28 -6 -28 -11 0 -4 -7 -6 -15 -2 -8 3 -15 2 -15 -2 0 -8 -88
-36 -102 -34 -5 1 -8 -3 -8 -9 0 -5 -4 -7 -10 -4 -5 3 -10 1 -10 -5 0 -6 -4
-9 -9 -5 -5 3 -17 -2 -25 -11 -9 -8 -16 -12 -16 -8 0 3 -6 2 -13 -5 -10 -8
-17 -7 -26 2 -10 9 -11 9 -6 -5 4 -11 -1 -20 -14 -28 -12 -6 -21 -7 -21 -3 0
4 -7 0 -15 -11 -7 -10 -18 -15 -24 -11 -6 3 -11 0 -11 -7 0 -7 -12 -22 -27
-32 -14 -11 -23 -14 -19 -8 3 6 1 14 -5 18 -7 4 -9 3 -6 -3 9 -15 -33 -65 -49
-59 -8 3 -13 0 -11 -7 1 -7 -4 -11 -11 -9 -8 1 -11 -1 -8 -6 3 -5 -10 -23 -29
-40 -19 -16 -35 -35 -35 -41 0 -6 -7 -11 -16 -11 -8 0 -12 -5 -9 -10 3 -6 -1
-13 -9 -16 -9 -3 -16 -12 -16 -20 0 -7 -6 -17 -13 -21 -8 -4 -22 -22 -32 -40
-10 -18 -23 -29 -28 -26 -4 3 -8 -1 -6 -8 3 -25 -1 -40 -9 -35 -4 2 -16 -18
-25 -45 -11 -31 -22 -47 -29 -43 -6 4 -8 3 -5 -3 8 -13 -16 -76 -25 -67 -4 3
-4 -4 -1 -17 5 -17 3 -20 -7 -14 -8 5 -11 4 -7 -2 6 -9 -5 -64 -20 -103 -3 -8
-7 -26 -9 -40 -1 -14 -7 -54 -11 -90 -34 -259 32 -535 181 -759 110 -166 256
-294 431 -381 616 -305 1351 4 1565 659 51 158 67 358 41 523 -7 43 -9 83 -5
89 4 8 3 9 -4 5 -8 -4 -12 1 -13 13 -2 29 -3 34 -12 49 -5 6 -5 17 -2 22 3 6
1 10 -5 10 -6 0 -8 5 -5 10 3 6 1 10 -4 10 -6 0 -11 7 -11 15 0 9 -9 34 -20
56 -12 22 -18 45 -14 51 4 7 3 8 -5 4 -10 -7 -40 46 -45 81 -1 7 -6 16 -11 20
-4 4 -5 2 -1 -4 4 -7 5 -13 2 -13 -10 0 -35 58 -28 65 4 5 2 5 -4 2 -7 -4 -19
3 -27 16 -9 12 -31 40 -51 61 -19 21 -33 43 -30 47 3 5 -2 6 -10 3 -11 -4 -16
0 -16 11 0 9 -4 14 -9 10 -12 -7 -24 31 -16 47 4 7 -1 4 -9 -6 -15 -18 -16
-18 -16 -2 0 9 -4 15 -9 12 -13 -9 -34 21 -25 36 6 11 5 11 -8 0 -13 -10 -21
-8 -47 17 -18 17 -41 33 -52 36 -13 5 -18 12 -14 22 4 12 2 13 -8 5 -10 -9
-19 -7 -35 8 -12 11 -30 20 -42 20 -11 0 -28 8 -38 18 -10 9 -29 18 -43 20
-13 1 -26 7 -27 12 -2 6 -7 8 -12 5 -14 -9 -62 14 -54 26 4 8 0 8 -15 0 -17
-10 -22 -9 -28 4 -5 13 -7 14 -14 3 -6 -9 -11 -10 -16 -2 -5 6 -16 10 -26 8
-12 -2 -17 2 -13 12 4 11 2 11 -13 2 -11 -6 -26 -8 -37 -3 -11 4 -39 7 -64 7
-25 0 -48 5 -52 12 -6 8 -8 8 -8 -1 0 -7 -5 -13 -11 -13 -5 0 -7 5 -3 12 5 7
3 8 -7 2 -21 -13 -43 -14 -50 -2 -4 7 -9 6 -14 -2z"/>
<path d="M1075 2400 c3 -5 8 -10 11 -10 2 0 4 5 4 10 0 6 -5 10 -11 10 -5 0
-7 -4 -4 -10z"/>
<path d="M586 2162 c-3 -5 1 -9 9 -9 8 0 12 4 9 9 -3 4 -7 8 -9 8 -2 0 -6 -4
-9 -8z"/>
<path d="M2356 1767 c3 -10 9 -15 12 -12 3 3 0 11 -7 18 -10 9 -11 8 -5 -6z"/>
</g>
</svg>
